<svg xmlns="http://www.w3.org/2000/svg" viewBox="0 0 64 64" fill="none">
  <defs>
    <pattern id="meshPattern" patternUnits="userSpaceOnUse" width="8" height="8">
      <circle cx="4" cy="4" r="2" fill="#E5FF00" opacity="0.6"/>
    </pattern>
    <linearGradient id="meshGrad" x1="0%" y1="0%" x2="100%" y2="100%">
      <stop offset="0%" style="stop-color:#2a2a2a"/>
      <stop offset="100%" style="stop-color:#1a1a1a"/>
    </linearGradient>
  </defs>
  <!-- Hoodie silhouette -->
  <path d="M12 20 Q12 12 20 10 L28 8 Q32 6 36 8 L44 10 Q52 12 52 20 L52 54 L12 54 Z"
        fill="url(#meshGrad)" stroke="#333" stroke-width="1"/>
  <!-- Hood shape -->
  <path d="M20 10 Q32 4 44 10 Q42 16 32 18 Q22 16 20 10"
        fill="#3a3a3a" stroke="#444" stroke-width="0.5"/>
  <!-- Mesh back panel with sparkle dots -->
  <rect x="20" y="22" width="24" height="28" rx="2" fill="url(#meshPattern)" stroke="#E5FF00" stroke-width="0.5" opacity="0.9"/>
  <!-- Rhinestone sparkle accents -->
  <circle cx="26" cy="28" r="1.5" fill="#ffffff" opacity="0.9"/>
  <circle cx="38" cy="32" r="1.5" fill="#ffffff" opacity="0.8"/>
  <circle cx="30" cy="40" r="1.5" fill="#ffffff" opacity="0.85"/>
  <circle cx="34" cy="36" r="1" fill="#E5FF00" opacity="0.9"/>
  <circle cx="42" cy="44" r="1" fill="#ffffff" opacity="0.7"/>
</svg>